<svg width="655" height="133" viewBox="0 0 655 133" fill="none" xmlns="http://www.w3.org/2000/svg">
<g filter="url(#filter0_d_106_102)">
<path d="M28.6 47.896C15.8 47.896 5.496 38.104 5.496 24.728V24.6C5.496 11.544 15.48 1.304 29.048 1.304C38.136 1.304 44.152 5.144 48.056 10.584L38.712 17.816C36.152 14.68 33.272 12.568 28.92 12.568C22.648 12.568 18.232 17.944 18.232 24.472V24.6C18.232 31.32 22.648 36.568 28.92 36.568C33.592 36.568 36.28 34.392 39.032 31.128L48.376 37.784C44.088 43.608 38.456 47.896 28.6 47.896ZM70.1155 47.832C59.1075 47.832 51.1075 39.768 51.1075 29.848V29.72C51.1075 19.8 59.1715 11.608 70.2435 11.608C81.3155 11.608 89.3155 19.736 89.3155 29.592V29.72C89.3155 39.64 81.1875 47.832 70.1155 47.832ZM70.2435 37.528C74.6595 37.528 77.5395 34.008 77.5395 29.848V29.72C77.5395 25.432 74.4675 21.848 70.1155 21.848C65.6995 21.848 62.8835 25.304 62.8835 29.592V29.72C62.8835 33.944 65.9555 37.528 70.2435 37.528ZM94.4515 47V12.376H106.612V17.24C108.852 14.36 112.052 11.608 116.98 11.608C124.404 11.608 128.756 16.408 128.756 24.344V47H116.66V28.248C116.66 24.408 114.74 22.36 111.732 22.36C108.724 22.36 106.612 24.408 106.612 28.248V47H94.4515ZM152.23 47.832C141.35 47.832 133.67 40.536 133.67 29.848V29.72C133.67 19.672 140.902 11.608 151.142 11.608C163.046 11.608 168.55 20.376 168.55 30.552C168.55 31.32 168.55 32.216 168.486 33.048H145.318C146.278 36.888 148.966 38.744 152.806 38.744C155.814 38.744 157.99 37.72 160.486 35.224L167.206 40.792C163.878 45.08 159.142 47.832 152.23 47.832ZM145.126 26.84H157.222C156.774 23 154.47 20.568 151.142 20.568C147.878 20.568 145.83 23 145.126 26.84ZM190.595 47.832C180.099 47.832 172.483 39.64 172.483 29.848V29.72C172.483 19.928 180.035 11.672 190.979 11.672C198.147 11.672 202.755 14.744 205.763 19.352L197.571 25.496C195.843 23.256 193.987 21.848 191.107 21.848C187.139 21.848 184.259 25.304 184.259 29.592V29.72C184.259 34.136 187.075 37.592 191.171 37.592C194.179 37.592 195.971 36.248 197.827 34.008L205.955 39.896C202.691 44.696 198.211 47.832 190.595 47.832ZM224.024 47.704C216.664 47.704 212.44 44.504 212.44 36.248V22.104H208.344V12.376H212.44V3.608H224.536V12.376H232.6V22.104H224.536V33.88C224.536 36.376 225.624 37.336 227.864 37.336C229.464 37.336 231 36.888 232.472 36.184V45.656C230.232 46.872 227.416 47.704 224.024 47.704ZM247.747 47.768C241.155 47.768 236.163 43.928 236.163 37.08V36.952C236.163 29.72 241.603 26.072 249.731 26.072C252.995 26.072 256.067 26.648 258.051 27.416V26.84C258.051 23.192 255.811 21.144 251.139 21.144C247.491 21.144 244.675 21.848 241.539 23.064L239.043 14.552C242.947 12.952 247.107 11.864 253.059 11.864C259.267 11.864 263.491 13.336 266.243 16.088C268.867 18.648 269.955 22.232 269.955 27.096V47H257.987V43.352C255.491 45.976 252.355 47.768 247.747 47.768ZM252.099 40.152C255.683 40.152 258.179 37.976 258.179 34.456V32.856C256.899 32.344 255.171 31.96 253.378 31.96C249.795 31.96 247.811 33.624 247.811 36.248V36.376C247.811 38.744 249.603 40.152 252.099 40.152ZM276.139 47V12.376H288.299V17.24C290.539 14.36 293.739 11.608 298.667 11.608C306.091 11.608 310.443 16.408 310.443 24.344V47H298.347V28.248C298.347 24.408 296.427 22.36 293.419 22.36C290.411 22.36 288.299 24.408 288.299 28.248V47H276.139ZM330.782 47.768C322.59 47.768 315.422 40.92 315.422 29.848V29.72C315.422 18.456 322.526 11.608 330.718 11.608C335.902 11.608 339.038 13.976 341.278 16.6V0.279999H353.438V47H341.278V42.392C338.91 45.272 335.966 47.768 330.782 47.768ZM334.43 37.592C338.398 37.592 341.534 34.328 341.534 29.72V29.592C341.534 24.984 338.398 21.72 334.43 21.72C330.59 21.72 327.326 24.984 327.326 29.592V29.72C327.326 34.328 330.59 37.592 334.43 37.592ZM377.616 47.832C366.608 47.832 358.608 39.768 358.608 29.848V29.72C358.608 19.8 366.672 11.608 377.744 11.608C388.816 11.608 396.816 19.736 396.816 29.592V29.72C396.816 39.64 388.688 47.832 377.616 47.832ZM377.744 37.528C382.16 37.528 385.04 34.008 385.04 29.848V29.72C385.04 25.432 381.968 21.848 377.616 21.848C373.2 21.848 370.384 25.304 370.384 29.592V29.72C370.384 33.944 373.456 37.528 377.744 37.528ZM421.139 57.24V12.376H433.299V16.984C435.667 14.104 438.611 11.608 443.795 11.608C451.987 11.608 459.155 18.456 459.155 29.528V29.656C459.155 40.92 452.051 47.768 443.859 47.768C438.611 47.768 435.603 45.4 433.299 42.776V57.24H421.139ZM440.147 37.592C443.987 37.592 447.251 34.392 447.251 29.72V29.592C447.251 24.984 443.987 21.72 440.147 21.72C436.179 21.72 433.043 24.984 433.043 29.592V29.72C433.043 34.328 436.179 37.592 440.147 37.592ZM474.309 47.768C467.717 47.768 462.725 43.928 462.725 37.08V36.952C462.725 29.72 468.165 26.072 476.293 26.072C479.557 26.072 482.629 26.648 484.613 27.416V26.84C484.613 23.192 482.373 21.144 477.701 21.144C474.053 21.144 471.237 21.848 468.101 23.064L465.605 14.552C469.509 12.952 473.669 11.864 479.621 11.864C485.829 11.864 490.053 13.336 492.805 16.088C495.429 18.648 496.517 22.232 496.517 27.096V47H484.549V43.352C482.053 45.976 478.917 47.768 474.309 47.768ZM478.661 40.152C482.245 40.152 484.741 37.976 484.741 34.456V32.856C483.461 32.344 481.733 31.96 479.941 31.96C476.357 31.96 474.373 33.624 474.373 36.248V36.376C474.373 38.744 476.165 40.152 478.661 40.152ZM502.766 9.24V0.279999H515.374V9.24H502.766ZM503.022 47V12.376H515.118V47H503.022ZM535.712 47.768C529.824 47.768 524.192 46.104 519.392 42.584L523.936 35.288C527.968 37.912 532.192 39.256 535.776 39.256C537.888 39.256 538.912 38.616 538.912 37.4V37.272C538.912 35.8 536.928 35.288 533.28 34.264C526.432 32.536 520.992 30.168 520.992 23.256V23.128C520.992 15.768 526.944 11.672 534.88 11.672C540 11.672 545.12 13.144 549.152 15.704L544.992 23.384C541.408 21.336 537.503 20.12 534.752 20.12C532.896 20.12 531.936 20.824 531.936 21.848V21.976C531.936 23.32 533.984 23.96 537.568 25.048C544.416 26.904 549.856 29.336 549.856 36.056V36.184C549.856 43.8 544.16 47.768 535.712 47.768ZM553.867 57.56L552.843 52.888C557.195 52.44 559.435 50.392 559.243 46.872H554.379V34.392H566.987V44.568C566.987 54.04 561.803 57.368 553.867 57.56ZM16.184 124.768C9.592 124.768 4.6 120.928 4.6 114.08V113.952C4.6 106.72 10.04 103.072 18.168 103.072C21.432 103.072 24.504 103.648 26.488 104.416V103.84C26.488 100.192 24.248 98.144 19.576 98.144C15.928 98.144 13.112 98.848 9.976 100.064L7.48 91.552C11.384 89.952 15.544 88.864 21.496 88.864C27.704 88.864 31.928 90.336 34.68 93.088C37.304 95.648 38.392 99.232 38.392 104.096V124H26.424V120.352C23.928 122.976 20.792 124.768 16.184 124.768ZM20.536 117.152C24.12 117.152 26.616 114.976 26.616 111.456V109.856C25.336 109.344 23.608 108.96 21.816 108.96C18.232 108.96 16.248 110.624 16.248 113.248V113.376C16.248 115.744 18.04 117.152 20.536 117.152ZM44.8965 124V77.28H56.9925V124H44.8965ZM75.4105 124.768C67.9865 124.768 63.5705 119.904 63.5705 111.968V89.376H75.7305V108.128C75.7305 111.968 77.6505 113.952 80.6585 113.952C83.6665 113.952 85.7785 111.968 85.7785 108.128V89.376H97.8745V124H85.7785V119.2C83.6025 122.08 80.3385 124.768 75.4105 124.768ZM104.389 124V89.376H116.549V94.24C118.789 91.36 121.989 88.608 126.917 88.608C134.341 88.608 138.693 93.408 138.693 101.344V124H126.597V105.248C126.597 101.408 124.677 99.36 121.669 99.36C118.661 99.36 116.549 101.408 116.549 105.248V124H104.389ZM162.616 124.832C151.608 124.832 143.608 116.768 143.608 106.848V106.72C143.608 96.8 151.672 88.608 162.744 88.608C173.816 88.608 181.816 96.736 181.816 106.592V106.72C181.816 116.64 173.688 124.832 162.616 124.832ZM162.744 114.528C167.16 114.528 170.04 111.008 170.04 106.848V106.72C170.04 102.432 166.968 98.848 162.616 98.848C158.2 98.848 155.384 102.304 155.384 106.592V106.72C155.384 110.944 158.456 114.528 162.744 114.528ZM200.524 124.768C194.636 124.768 189.004 123.104 184.204 119.584L188.748 112.288C192.78 114.912 197.004 116.256 200.588 116.256C202.7 116.256 203.724 115.616 203.724 114.4V114.272C203.724 112.8 201.74 112.288 198.092 111.264C191.244 109.536 185.804 107.168 185.804 100.256V100.128C185.804 92.768 191.756 88.672 199.692 88.672C204.812 88.672 209.932 90.144 213.964 92.704L209.804 100.384C206.22 98.336 202.316 97.12 199.564 97.12C197.708 97.12 196.748 97.824 196.748 98.848V98.976C196.748 100.32 198.796 100.96 202.38 102.048C209.228 103.904 214.668 106.336 214.668 113.056V113.184C214.668 120.8 208.972 124.768 200.524 124.768ZM256.043 124.832C245.163 124.832 237.483 117.536 237.483 106.848V106.72C237.483 96.672 244.715 88.608 254.955 88.608C266.859 88.608 272.363 97.376 272.363 107.552C272.363 108.32 272.363 109.216 272.299 110.048H249.131C250.091 113.888 252.779 115.744 256.619 115.744C259.627 115.744 261.803 114.72 264.299 112.224L271.019 117.792C267.691 122.08 262.955 124.832 256.043 124.832ZM248.939 103.84H261.035C260.587 100 258.283 97.568 254.955 97.568C251.691 97.568 249.643 100 248.939 103.84ZM314.043 124.832C303.163 124.832 295.483 117.536 295.483 106.848V106.72C295.483 96.672 302.715 88.608 312.955 88.608C324.859 88.608 330.363 97.376 330.363 107.552C330.363 108.32 330.363 109.216 330.299 110.048H307.131C308.091 113.888 310.779 115.744 314.619 115.744C317.627 115.744 319.803 114.72 322.299 112.224L329.019 117.792C325.691 122.08 320.955 124.832 314.043 124.832ZM306.939 103.84H319.035C318.587 100 316.283 97.568 312.955 97.568C309.691 97.568 307.643 100 306.939 103.84ZM349.399 124.768C343.511 124.768 337.879 123.104 333.079 119.584L337.623 112.288C341.655 114.912 345.879 116.256 349.463 116.256C351.575 116.256 352.599 115.616 352.599 114.4V114.272C352.599 112.8 350.615 112.288 346.967 111.264C340.119 109.536 334.679 107.168 334.679 100.256V100.128C334.679 92.768 340.631 88.672 348.567 88.672C353.687 88.672 358.807 90.144 362.839 92.704L358.679 100.384C355.095 98.336 351.191 97.12 348.439 97.12C346.583 97.12 345.623 97.824 345.623 98.848V98.976C345.623 100.32 347.671 100.96 351.255 102.048C358.103 103.904 363.543 106.336 363.543 113.056V113.184C363.543 120.8 357.847 124.768 349.399 124.768ZM385.282 124.832C374.786 124.832 367.17 116.64 367.17 106.848V106.72C367.17 96.928 374.722 88.672 385.666 88.672C392.834 88.672 397.442 91.744 400.45 96.352L392.258 102.496C390.53 100.256 388.674 98.848 385.794 98.848C381.826 98.848 378.946 102.304 378.946 106.592V106.72C378.946 111.136 381.762 114.592 385.858 114.592C388.866 114.592 390.658 113.248 392.514 111.008L400.642 116.896C397.378 121.696 392.898 124.832 385.282 124.832ZM421.678 124.832C410.67 124.832 402.67 116.768 402.67 106.848V106.72C402.67 96.8 410.734 88.608 421.806 88.608C432.878 88.608 440.878 96.736 440.878 106.592V106.72C440.878 116.64 432.75 124.832 421.678 124.832ZM421.806 114.528C426.222 114.528 429.102 111.008 429.102 106.848V106.72C429.102 102.432 426.03 98.848 421.678 98.848C417.262 98.848 414.446 102.304 414.446 106.592V106.72C414.446 110.944 417.518 114.528 421.806 114.528ZM446.334 124V77.28H458.43V124H446.334ZM475.184 124.768C468.592 124.768 463.6 120.928 463.6 114.08V113.952C463.6 106.72 469.04 103.072 477.168 103.072C480.432 103.072 483.504 103.648 485.488 104.416V103.84C485.488 100.192 483.248 98.144 478.576 98.144C474.928 98.144 472.112 98.848 468.976 100.064L466.48 91.552C470.384 89.952 474.544 88.864 480.496 88.864C486.704 88.864 490.928 90.336 493.68 93.088C496.304 95.648 497.392 99.232 497.392 104.096V124H485.424V120.352C482.928 122.976 479.792 124.768 475.184 124.768ZM479.536 117.152C483.12 117.152 485.616 114.976 485.616 111.456V109.856C484.336 109.344 482.608 108.96 480.816 108.96C477.232 108.96 475.248 110.624 475.248 113.248V113.376C475.248 115.744 477.04 117.152 479.536 117.152ZM517.337 124.768C511.449 124.768 505.817 123.104 501.017 119.584L505.561 112.288C509.593 114.912 513.817 116.256 517.401 116.256C519.513 116.256 520.537 115.616 520.537 114.4V114.272C520.537 112.8 518.553 112.288 514.905 111.264C508.057 109.536 502.617 107.168 502.617 100.256V100.128C502.617 92.768 508.569 88.672 516.505 88.672C521.625 88.672 526.745 90.144 530.777 92.704L526.617 100.384C523.033 98.336 519.128 97.12 516.377 97.12C514.521 97.12 513.561 97.824 513.561 98.848V98.976C513.561 100.32 515.609 100.96 519.193 102.048C526.041 103.904 531.481 106.336 531.481 113.056V113.184C531.481 120.8 525.785 124.768 517.337 124.768ZM572.855 124.832C561.975 124.832 554.295 117.536 554.295 106.848V106.72C554.295 96.672 561.527 88.608 571.767 88.608C583.671 88.608 589.175 97.376 589.175 107.552C589.175 108.32 589.175 109.216 589.111 110.048H565.943C566.903 113.888 569.591 115.744 573.431 115.744C576.439 115.744 578.615 114.72 581.111 112.224L587.831 117.792C584.503 122.08 579.767 124.832 572.855 124.832ZM565.751 103.84H577.847C577.399 100 575.095 97.568 571.767 97.568C568.503 97.568 566.455 100 565.751 103.84ZM594.452 124V89.376H606.612V94.112C608.852 91.232 612.052 88.608 616.916 88.608C621.524 88.608 625.044 90.656 626.9 94.24C629.908 90.72 633.364 88.608 638.484 88.608C645.908 88.608 650.324 93.152 650.324 101.28V124H638.164V105.184C638.164 101.344 636.308 99.36 633.428 99.36C630.548 99.36 628.436 101.344 628.436 105.184V124H616.34V105.184C616.34 101.344 614.42 99.36 611.54 99.36C608.66 99.36 606.612 101.344 606.612 105.184V124H594.452Z" fill="#0426FF"/>
</g>
<defs>
<filter id="filter0_d_106_102" x="0.600006" y="0.279999" width="653.724" height="132.552" filterUnits="userSpaceOnUse" color-interpolation-filters="sRGB">
<feFlood flood-opacity="0" result="BackgroundImageFix"/>
<feColorMatrix in="SourceAlpha" type="matrix" values="0 0 0 0 0 0 0 0 0 0 0 0 0 0 0 0 0 0 127 0" result="hardAlpha"/>
<feOffset dy="4"/>
<feGaussianBlur stdDeviation="2"/>
<feComposite in2="hardAlpha" operator="out"/>
<feColorMatrix type="matrix" values="0 0 0 0 0 0 0 0 0 0 0 0 0 0 0 0 0 0 0.25 0"/>
<feBlend mode="normal" in2="BackgroundImageFix" result="effect1_dropShadow_106_102"/>
<feBlend mode="normal" in="SourceGraphic" in2="effect1_dropShadow_106_102" result="shape"/>
</filter>
</defs>
</svg>
